# xmcd CD database file
#
# Track frame offsets:
#	150
#	21580
#	40537
#
# Disc length: 824 seconds
#
# Revision: 0
# Processed by: cddbd v1.5PL3 Copyright (c) Steve Scherf et al.
# Submitted via: CDex 1.50Beta7
#
DISCID=1c033603
DTITLE=財津和夫 - サボテンの花
DYEAR=1993
DGENRE=JPop
TTITLE0=サボテンの花
TTITLE1=しわくちゃのスーツ
TTITLE2=カラオケ
EXTD=YEAR: 1993
EXTT0=
EXTT1=
EXTT2=
PLAYORDER=
